<?xml version="1.0" encoding="utf-8"?>
<!-- Generator: Adobe Illustrator 19.2.1, SVG Export Plug-In . SVG Version: 6.00 Build 0)  -->
<svg version="1.1" id="Layer_1" xmlns="http://www.w3.org/2000/svg" xmlns:xlink="http://www.w3.org/1999/xlink" x="0px" y="0px"
	 viewBox="0 0 56 62" style="enable-background:new 0 0 56 62;" xml:space="preserve">
<style type="text/css">
	.st0{fill:#FFFFFF;}
</style>
<g>
	<g>
		<g>
			<polygon class="st0" points="46.6,28.7 43.4,28.8 46.6,32.5 			"/>
		</g>
		<g>
			<polygon class="st0" points="8,4.7 8,1.3 11.4,4.7 			"/>
		</g>
		<g>
			<polygon class="st0" points="21.9,60.7 18.2,57 18.2,60.7 18.2,60.7 			"/>
		</g>
		<g>
			<polygon class="st0" points="1.1,46.7 1.1,43 4.8,46.7 			"/>
		</g>
		<g>
			<polygon class="st0" points="1,10.5 1,14.2 4.8,10.5 			"/>
		</g>
		<g>
			<polygon class="st0" points="31.8,17.5 36,17.8 33.7,19.8 			"/>
		</g>
		<g>
			<path class="st0" d="M18.2,46.8"/>
		</g>
		<g>
			<path class="st0" d="M17.8,47.5V46c6.4,0,11.7-5.2,11.7-11.7c0-3.1-1.2-6.1-3.5-8.3l1-1c2.5,2.5,3.9,5.8,3.9,9.3
				C30.9,41.6,25,47.5,17.8,47.5z"/>
		</g>
		<g>
			<path class="st0" d="M28.4,39.1"/>
		</g>
		<g>
			<path class="st0" d="M18.4,47.4c-4.9-0.4-7.9-3-7.9-6.8c0-5.3,6.8-6.7,9.8-7.1c1-0.1,1.6-0.2,2.2-0.2c0.3,0,0.6-0.1,0.9-0.1
				c2.9-0.3,5.5-0.8,5.5-2.4h1.4c0,3.1-4.4,3.6-6.8,3.9c-0.3,0-0.6,0.1-0.9,0.1c-0.6,0.1-1.2,0.1-2.2,0.2c-5.4,0.7-8.5,2.7-8.5,5.7
				c0,3.1,2.4,5.1,6.6,5.4L18.4,47.4z"/>
		</g>
		<g>
			
				<rect x="15.4" y="24.5" transform="matrix(0.7733 -0.6341 0.6341 0.7733 -9.7317 23.1352)" class="st0" width="24.1" height="1.4"/>
		</g>
		<g>
			<path class="st0" d="M27,17.3"/>
		</g>
		<g>
			<path class="st0" d="M37,17.9h-1.4c0-6.1-5-11.1-11.1-11.1c-3,0-5.8,1.2-7.8,3.3l-1-1c2.4-2.4,5.5-3.7,8.9-3.7
				C31.4,5.4,37,11,37,17.9z"/>
		</g>
		<g>
			<path class="st0" d="M18.2,47.4H0.3V9.8h7V0.6h1.1l16.3,16.3c0.3,0.3,0.3,0.7,0,1c-0.3,0.3-0.7,0.3-1,0l-15-15v8.3h-7V46h16.4
				c0.4,0,0.7,0.3,0.7,0.7S18.6,47.4,18.2,47.4z"/>
		</g>
		<g>
			<path class="st0" d="M42.6,48.1c-7.2,0-13.1-5.9-13.1-13.1s5.9-13.1,13.1-13.1S55.7,27.8,55.7,35S49.8,48.1,42.6,48.1z
				 M42.6,23.3c-6.4,0-11.7,5.2-11.7,11.7s5.2,11.7,11.7,11.7S54.2,41.4,54.2,35S49,23.3,42.6,23.3z"/>
		</g>
		<g>
			<path class="st0" d="M21.4,61.4h-3.9V33.5c0-0.6-0.2-5.9-6.9-5.9c-6,0-8.8,3.6-8.8,6H0.3c0-3,3.3-7.5,10.3-7.5
				c6.6,0,8.3,4.6,8.3,7.3V60h2.5c6.4,0,11.7-5.2,11.7-11.7c0-0.8,0-1.6,0-2.5c0-2.7-0.1-5.5,0.2-8.2c0.4-3.3,1.1-7,3.6-9.2
				c0.9-0.8,2-1.2,3.1-1.3c0.2,0,0.3,0,0.5,0c2.4,0,4.2,1.1,5.4,3.1V18.3H13.4C7,18.3,1.8,23.5,1.8,29.9H0.3
				c0-7.2,5.9-13.1,13.1-13.1h33.9V35L45.9,35c-0.4-4.2-2.4-6.6-5.4-6.6c-0.1,0-0.2,0-0.4,0c-0.8,0.1-1.6,0.4-2.3,1
				c-2.2,1.9-2.9,5.4-3.2,8.3c-0.3,2.6-0.3,5.4-0.2,8c0,0.8,0,1.6,0,2.5C34.5,55.5,28.6,61.4,21.4,61.4z"/>
		</g>
	</g>
</g>
</svg>
