<svg id="Layer_1" data-name="Layer 1" xmlns="http://www.w3.org/2000/svg" viewBox="0 0 256 64"><defs><style>.cls-1{fill:#20272c;fill-rule:evenodd;}</style></defs><title>Artboard 1</title><g id="Symbols"><g id="nav-_-main-_-dark" data-name="nav-/-main-/-dark"><g id="logo-_-greylock-_-dark" data-name="logo-/-greylock-/-dark"><path id="Fill-1" class="cls-1" d="M164.26,45.29c-7.57,0-13.73-6.44-13.73-14.37s6.16-14.38,13.73-14.38S178,23,178,30.92s-6.16,14.37-13.72,14.37Zm0-33c-9.93,0-18,8.36-18,18.65s8.08,18.65,18,18.65,18-8.37,18-18.65-8.08-18.65-18-18.65Zm-37.12,1h4.58L114.8,56.88A11.09,11.09,0,0,1,104.4,64H102V59.72h2.44a6.85,6.85,0,0,0,6.42-4.39l2.61-6.72L99.72,13.3h4.58l11.42,29.41ZM256,48.47h-5.77l-15.4-17L233.21,33V48.47h-4.27V0h4.27V27.8L248.9,13.39h5.58l0,0L238,28.58ZM191.76,30.92c0,7.93,6.15,14.37,13.73,14.37a13.76,13.76,0,0,0,12.62-8.72h4.53a18.12,18.12,0,0,1-17.15,13c-9.93,0-18-8.37-18-18.65s8.08-18.65,18-18.65a18.13,18.13,0,0,1,17.21,13.2h-4.52a13.76,13.76,0,0,0-12.69-8.93c-7.58,0-13.73,6.45-13.73,14.38ZM135.87,48.47h4.28V0h-4.28ZM18,45.29c-7.57,0-13.73-6.44-13.73-14.37S10.43,16.54,18,16.54,31.73,23,31.73,30.92,25.57,45.29,18,45.29ZM31.73,18.88A17.72,17.72,0,0,0,18,12.27c-9.93,0-18,8.36-18,18.65S8.07,49.57,18,49.57A17.72,17.72,0,0,0,31.73,43v1.62A14.29,14.29,0,0,1,17.56,59,14,14,0,0,1,6.84,54H1.64a18.41,18.41,0,0,0,15.92,9.27A18.57,18.57,0,0,0,36,44.58V13.3H31.73Zm17-.89A15.54,15.54,0,0,1,60,13.06v4.28A11.37,11.37,0,0,0,48.68,28.7V48.47H44.41V13.3h4.27Zm30.41-1.45a14.32,14.32,0,0,1,14.1,11.62H65a14.4,14.4,0,0,1,14.1-11.62Zm18.7,15.89-.08-2.21a18.63,18.63,0,0,0-37.25.7,18.87,18.87,0,0,0,19,18.65A19.12,19.12,0,0,0,97.11,38H92.33A14.88,14.88,0,0,1,79.5,45.29,14.65,14.65,0,0,1,64.81,32.43h33Z"/></g></g></g></svg>